<svg width="1024" height="1014" viewBox="0 0 1024 1014" fill="none" xmlns="http://www.w3.org/2000/svg">
<path d="M162.667 839.062L160.875 838.874L158.708 838.52L158 836.729V834.749L158.708 833.333L158.542 830.812L158.708 829.749L158.896 828.479L159.25 826.52L159.979 825.083L160.146 824.02L160.333 822.749L160.5 820.437L160.688 818.999L161.396 816.499L162.125 814.708V813.083L162.479 812.02L162.667 809.499L163.188 807.895V806.458L163.563 805.395V804.124L164.271 801.979V799.479L164.625 797.145L165.521 794.645L166.063 791.77L165.875 790.52L166.229 787.833L166.771 786.583V784.083L167.5 779.062L168.208 776.729V775.479L168.75 772.979L168.917 770.645L169.646 768.312L170.354 766.166L170.708 764.916L171.25 762.77V760.624L171.604 758.104L172.146 756.854L172.5 754.354L172.875 753.104L173.229 750.77L173.042 749.687L173.229 748.437V747.187L173.396 745.937L174.292 743.062V741.812L174.833 740.729L175.021 738.229L175.542 735.895L175.917 734.833L176.083 733.395L176.271 731.062L176.438 729.104L177.167 727.833V726.416L177.875 723.187L178.229 720.854L178.604 719.958L178.417 717.812L178.604 716.562L178.958 714.416L181.104 713.52L189.875 713.166L196.333 713.333L200.979 713.52H221.938L224.792 713.687H226.958L229.271 714.416L229.813 715.854L229.458 717.104V719.062L229.104 721.395V722.291L228.563 725.333L228.021 727.666L227.854 728.729V729.999L227.125 733.208L226.583 736.979L224.979 737.874L223.375 737.687L220.5 738.041L217.104 737.687L214.583 737.52L209.938 737.687L202.583 737.874H200.813L200.438 739.312L200.271 741.27L200.083 742.52L199.542 745.208L199.021 747.729V748.624L198.292 752.916L197.583 754.354V755.77L197.229 757.041L197.042 758.104V759.354L196.688 761.52L196.146 763.291L198.125 763.479L206 763.666L208.146 763.479L210.646 763.291H212.625L215.125 763.479L215.667 765.458L215.479 766.874L214.958 768.312V769.749L214.229 772.249V773.145L213.688 775.291L213.521 776.374L213.333 777.624L212.792 779.958V782.104L212.083 784.437L211.542 786.937L210.479 789.083H208.688L206.708 788.916H200.271L196.146 789.27L191.854 788.916L191.313 791.77L190.958 793.562L190.604 795.895L190.063 798.395L189.875 799.291L189.167 801.27L189.333 802.333L188.813 804.666L188.271 807.354L187.729 809.499L187.021 811.833L187.188 813.083L186.833 814.333L186.646 816.854V817.916L186.292 820.437L185.938 822.583L185.75 823.833L184.688 825.979L184.5 827.229V828.312L184.333 829.562L184.5 830.812L183.958 832.958L183.604 835.104L182.896 837.437L181.104 838.687L179.854 838.52L178.604 838.687L174.292 839.062L170.708 838.874L169.646 839.062H162.667Z" fill="white"/>
<path d="M213.69 839.062L212.253 838.166L211.545 837.083L211.357 835.833L211.19 834.75L211.357 833.687L212.086 831.896L212.628 830.104L212.795 828.854L212.982 827.771L213.69 825.437V822.75L214.42 820.437V819.166L214.586 818.104L214.94 815.771L215.315 814.166V812.021L216.211 809.5L216.565 808.437L217.107 807.187L216.92 806.104L217.461 803.771L218.003 802.521V801.437L218.17 800.375L218.524 797.875L218.899 796.791V794.291L219.065 793.208L219.253 791.958V790.875L219.961 788.375V787.125L220.857 784.604L221.565 779.25L222.295 776.729V775.833L223.357 770.833L223.732 768.5L224.086 766.354L224.982 764.021L225.149 762.583V760.083L226.045 757.75V756.5L226.42 754.354L226.94 750.583L226.774 749.146L227.315 747.729L228.024 745.208L228.378 743.791L228.024 742.521L228.378 741.104L228.565 738.771L228.92 736.791L229.628 735.729V734.479L229.815 733.208V732.146L230.524 730.896L230.711 728.021L231.253 725.166L231.961 723L232.149 720.854V719.604L232.503 718.521L233.399 714.958L233.94 713.875L236.795 713.521H241.086L247.711 713.687H254.711L258.295 713.875L258.815 716.021L258.649 717.271V718.521L257.565 722.833V724.083L257.211 725.166L256.67 728.916L256.315 730.896L255.961 732.687L254.524 738.937L253.982 741.458V742.896L253.274 745.396L252.92 747.896L252.19 749.146L252.565 750.583L252.19 752.021L252.024 753.271L251.67 754.521L251.128 757.041L250.586 759.354L249.878 760.625L250.045 762.041L249.69 763.291V764.729L249.149 768.5L248.795 769.75V772.25L248.44 773.5L247.899 776.187L247.711 777.458L247.003 780.312L246.815 783L246.295 785.5L246.107 786.937L245.94 788.187L245.211 791.062V792.312L244.857 793.75L244.67 796.25L243.961 798.583L243.774 800.916L243.42 802.521V804.312L243.253 805.562L243.065 806.646L242.711 807.896L242.524 809.854L242.17 811.646V813.437L243.065 814.333H244.857L246.461 814.521H255.774L259.711 814.333H264.378L265.44 814.875L265.274 817.562L264.92 818.812L265.086 820.062L264.545 821.5L263.67 827.771L263.128 829.021V830.271L262.94 831.354L262.586 834.041L261.878 836.896L260.44 838.166H257.024L254.711 838.521L250.774 839.062L247.545 838.875L244.857 839.062L242.357 838.687L238.774 838.875H224.086L222.295 839.062H217.274L216.024 838.875L213.69 839.062Z" fill="white"/>
<path d="M295.886 839.958L288.552 839.062L287.302 838.687L286.573 838.333L283.532 837.271L282.282 836.729L281.198 836.187L277.636 834.041L275.844 832.25L274.761 831L273.865 829.916L272.969 828.479L272.782 827.958L271.365 825.083L269.927 822.583L269.219 819.708L269.032 817.208L268.323 811.125L268.49 810.041L268.677 803.958L269.032 802.333L269.74 797.5L269.927 795.187L270.115 792.5L270.469 790.333L270.823 788.562V786.229L271.532 784.083L271.719 782.812L271.886 781.75L272.427 779.604L272.261 778.354L272.427 777.083L272.969 774.937L273.323 773.687V771.354L274.052 769.041L274.219 766.521L274.761 764.187L275.469 761.687V760.25L275.657 757.75L276.198 756.666L276.74 751.666L277.094 750.583L277.448 748.25V747L277.636 745.937L278.532 743.604L278.698 742.354L278.886 740.916L279.407 738.416L279.594 736.979V735.541L280.136 733.041V731.791L280.49 730.708L281.032 725.687L281.927 723.375L282.282 722.479L282.636 720.687L282.99 718.166L283.719 715.666L284.073 714.229L285.157 713.875L288.198 713.687H289.094L290.698 713.521L298.219 713.687L302.511 713.333L304.136 713.521L306.99 713.687L308.615 714.958L308.782 717.646V720.146L308.427 721.208L308.073 722.479L308.24 724.979L307.886 726.229L307.532 727.833L307.177 729.271L306.99 730.521L306.636 731.604V732.854L305.927 735L305.573 737.333L305.386 738.771V740.562L305.198 741.812L304.302 744.312L304.136 745.75L303.594 748.437L303.24 751.125L303.052 752.208L302.511 753.458L302.344 755.25L302.157 756.5L301.802 757.937V759.187L300.907 761.687L300.719 762.771L301.094 765.083L300.365 766.708L300.198 768.312L300.011 769.75L299.657 771L299.302 772.083L298.761 774.229V776.562L298.032 778.875L297.677 781.021L296.782 787.479L296.261 791.062L296.073 793.562L295.532 795.896L294.99 800.187L294.823 801.812L294.636 802.875L294.469 804.125L294.636 807V808.958L294.823 811.125L296.782 813.437L298.761 813.979L302.511 814.521L306.636 813.979L308.427 812.541L309.511 811.125L310.032 810.041L311.302 807.187L312.198 805.396L312.552 803.771L312.907 802.708L313.802 799.125L314.344 796.604L314.698 795.354L314.886 793.562L315.24 792.5L315.594 790.875L315.761 789.271L316.136 788.021L316.49 786.583L316.657 785.333L317.032 783L317.386 781.208L318.094 777.979L318.282 775.833L318.636 774.583L319.532 772.083V770.646L319.886 768.312L320.427 765.979L320.782 763.833L321.511 761.333L321.677 759.896L322.407 757.396V755.958L322.761 753.458L322.927 752.562V750.041L324.011 748.25L323.823 746.291L324.552 743.791L324.719 742.354L325.073 739.833L325.261 738.416L325.802 735.896L326.157 733.396L326.511 731.062L326.344 729.812L327.24 727.833L327.407 726.771L327.594 724.625L327.761 723.541L328.302 721.208L328.844 718.708L329.386 716.375L329.552 714.958L330.094 713.687L335.469 713.521H336.719L337.969 713.687L343.177 713.521H344.427L345.677 713.687H347.115L348.365 713.521L350.157 713.687L351.407 713.521L353.011 713.333L354.448 713.521L355.886 714.958L356.073 717.646L354.99 720.146L354.802 722.833L354.448 724.271L354.094 726.771L353.907 728.208L353.198 730.708L353.011 731.958L352.657 733.396L352.49 734.646L351.761 736.979L351.948 738.041L351.219 740.208V741.271L350.698 743.25L350.344 744.854L349.802 746.458L349.448 748.083L348.907 750.229V751.479L348.552 752.729L348.365 753.812L348.011 755.062L348.177 756.312L346.927 760.25L346.386 762.937V764.021L345.865 766.521L345.677 767.604L345.323 770.104L345.136 772.604L344.427 775.125V776.375L344.073 778.875L343.344 780.312L343.177 782.646L342.802 784.791L342.282 787.125L341.552 789.625L341.386 790.875L340.844 793.396V793.75L340.136 795.896L339.594 798.229V799.291L339.24 800.541L338.698 802.521L338.344 804.125V805.396L337.969 806.458L337.615 807.708L336.907 809.854L336.177 812.187L335.657 815.229L334.761 816.312L334.219 818.646L332.969 820.958L332.24 822.041L331.177 824.541L330.448 825.791L329.552 827.062L328.844 828.666L327.761 830.271L326.157 831.541L324.719 833.333L323.115 834.229L321.677 835.104L319.532 836L318.636 836.729L315.761 837.791L314.698 838.166L312.552 838.687L310.927 839.062L309.865 839.416L306.282 839.771H302.157L299.469 839.958H295.886Z" fill="white"/>
<path d="M346.579 839.062L344.787 838.874L342.62 838.52L341.912 836.729V834.749L342.62 833.333L342.454 830.812L342.62 829.749L342.808 828.479L343.162 826.52L343.891 825.083L344.058 824.02L344.245 822.749L344.412 820.437L344.6 818.999L345.308 816.499L346.037 814.708V813.083L346.391 812.02L346.579 809.499L347.1 807.895V806.458L347.475 805.395V804.124L348.183 801.979V799.479L348.537 797.145L349.433 794.645L349.975 791.77L349.787 790.52L350.141 787.833L350.683 786.583V784.083L351.412 779.062L352.12 776.729V775.479L352.662 772.979L352.829 770.645L353.558 768.312L354.266 766.166L354.62 764.916L355.162 762.77V760.624L355.516 758.104L356.058 756.854L356.412 754.354L356.787 753.104L357.141 750.77L356.954 749.687L357.141 748.437V747.187L357.308 745.937L358.204 743.062V741.812L358.745 740.729L358.933 738.229L359.454 735.895L359.829 734.833L359.995 733.395L360.183 731.062L360.35 729.104L361.079 727.833V726.416L361.787 723.187L362.141 720.854L362.516 719.958L362.329 717.812L362.516 716.562L362.87 714.416L365.016 713.52L373.787 713.166L380.245 713.333L384.891 713.52H405.85L408.704 713.687H410.87L413.183 714.416L413.725 715.854L413.37 717.104V719.062L413.016 721.395V722.291L412.475 725.333L411.933 727.666L411.766 728.729V729.999L411.037 733.208L410.495 736.979L408.891 737.874L407.287 737.687L404.412 738.041L401.016 737.687L398.495 737.52L393.85 737.687L386.495 737.874H384.725L384.35 739.312L384.183 741.27L383.995 742.52L383.454 745.208L382.933 747.729V748.624L382.204 752.916L381.495 754.354V755.77L381.141 757.041L380.954 758.104V759.354L380.6 761.52L380.058 763.291L382.037 763.479L389.912 763.666L392.058 763.479L394.558 763.291H396.537L399.037 763.479L399.579 765.458L399.391 766.874L398.87 768.312V769.749L398.141 772.249V773.145L397.6 775.291L397.433 776.374L397.245 777.624L396.704 779.958V782.104L395.995 784.437L395.454 786.937L394.391 789.083H392.6L390.62 788.916H384.183L380.058 789.27L375.766 788.916L375.225 791.77L374.87 793.562L374.516 795.895L373.975 798.395L373.787 799.291L373.079 801.27L373.245 802.333L372.725 804.666L372.183 807.354L371.641 809.499L370.933 811.833L371.1 813.083L370.745 814.333L370.558 816.854V817.916L370.204 820.437L369.85 822.583L369.662 823.833L368.6 825.979L368.412 827.229V828.312L368.245 829.562L368.412 830.812L367.87 832.958L367.516 835.104L366.808 837.437L365.016 838.687L363.766 838.52L362.516 838.687L358.204 839.062L354.62 838.874L353.558 839.062H346.579Z" fill="white"/>
<path d="M400.124 839.062L398.332 838.874L396.165 838.52L395.457 836.729V834.749L396.165 833.333L395.999 830.812L396.165 829.749L396.353 828.479L396.707 826.52L397.436 825.083L397.603 824.02L397.79 822.749L397.957 820.437L398.145 818.999L398.853 816.499L399.582 814.708V813.083L399.936 812.02L400.124 809.499L400.645 807.895V806.458L401.02 805.395V804.124L401.728 801.979V799.479L402.082 797.145L402.978 794.645L403.52 791.77L403.332 790.52L403.686 787.833L404.228 786.583V784.083L404.957 779.062L405.665 776.729V775.479L406.207 772.979L406.374 770.645L407.103 768.312L407.811 766.166L408.165 764.916L408.707 762.77V760.624L409.061 758.104L409.603 756.854L409.957 754.354L410.332 753.104L410.686 750.77L410.499 749.687L410.686 748.437V747.187L410.853 745.937L411.749 743.062V741.812L412.29 740.729L412.478 738.229L412.999 735.895L413.374 734.833L413.54 733.395L413.728 731.062L413.895 729.104L414.624 727.833V726.416L415.332 723.187L415.686 720.854L416.061 719.958L415.874 717.812L416.061 716.562L416.415 714.416L418.561 713.52L427.332 713.166L433.79 713.333L438.436 713.52H459.395L462.249 713.687H464.415L466.728 714.416L467.27 715.854L466.915 717.104V719.062L466.561 721.395V722.291L466.02 725.333L465.478 727.666L465.311 728.729V729.999L464.582 733.208L464.04 736.979L462.436 737.874L460.832 737.687L457.957 738.041L454.561 737.687L452.04 737.52L447.395 737.687L440.04 737.874H438.27L437.895 739.312L437.728 741.27L437.54 742.52L436.999 745.208L436.478 747.729V748.624L435.749 752.916L435.04 754.354V755.77L434.686 757.041L434.499 758.104V759.354L434.145 761.52L433.603 763.291L435.582 763.479L443.457 763.666L445.603 763.479L448.103 763.291H450.082L452.582 763.479L453.124 765.458L452.936 766.874L452.415 768.312V769.749L451.686 772.249V773.145L451.145 775.291L450.978 776.374L450.79 777.624L450.249 779.958V782.104L449.54 784.437L448.999 786.937L447.936 789.083H446.145L444.165 788.916H437.728L433.603 789.27L429.311 788.916L428.77 791.77L428.415 793.562L428.061 795.895L427.52 798.395L427.332 799.291L426.624 801.27L426.79 802.333L426.27 804.666L425.728 807.354L425.186 809.499L424.478 811.833L424.645 813.083L424.29 814.333L424.103 816.854V817.916L423.749 820.437L423.395 822.583L423.207 823.833L422.145 825.979L421.957 827.229V828.312L421.79 829.562L421.957 830.812L421.415 832.958L421.061 835.104L420.353 837.437L418.561 838.687L417.311 838.52L416.061 838.687L411.749 839.062L408.165 838.874L407.103 839.062H400.124Z" fill="white"/>
<path d="M467.98 838.874L466.73 838.687H464.043L462.084 837.624L461.897 835.291L462.251 833.145L462.605 830.812L462.438 829.749L462.793 828.479L462.98 827.416L463.147 826.166L463.501 825.083V823.124L464.043 821.499L464.938 817.562L465.126 815.604L465.48 813.27L466.022 812.02L466.376 809.333L466.918 806.812L467.438 805.395V803.604L467.98 800.729L468.709 798.395L468.876 797.333V796.083L469.605 794.104L469.772 791.958L470.668 788.916L470.501 786.77L469.959 784.979L469.772 783.354L469.959 781.916L469.605 780.666L469.23 777.979L468.709 775.291V773.874L468.168 772.604L467.813 770.104L467.98 769.041L467.438 766.354L466.918 763.124L466.73 761.874L466.188 759.729L465.48 757.395L465.126 755.062V753.812L464.584 750.937L463.688 748.249L463.501 746.833L463.147 742.354L462.793 740.916L462.98 738.77L462.438 737.52L462.084 734.833V733.583L461.355 731.062L460.647 725.687L460.459 723.374L460.293 722.291L459.918 719.791L459.751 717.458V715.666L460.293 714.229L461.188 713.874L462.605 713.687L467.272 713.52L469.772 713.687L471.563 713.52L472.813 713.687L474.793 713.333L479.626 713.52H482.313L484.272 715.666L484.813 717.458V721.583L485.355 722.999V724.791L486.063 726.229L486.438 731.249L486.251 732.312L486.793 734.833L487.147 736.083L487.855 737.874L487.688 739.666L487.855 741.999L488.397 743.791V745.395L488.751 747.541L489.48 752.208L489.647 754.874L490.376 755.062L490.918 754.166L491.272 753.104L491.626 752.208L492.688 750.041L493.418 748.791L493.584 747.729L495.022 745.562L495.918 743.416L497.001 741.458L498.793 737.145L499.855 734.833L500.584 733.749L500.751 732.499L502.188 730.166L502.543 729.104L502.897 727.833L504.522 724.27L505.584 721.749L506.48 719.416L507.022 718.354L508.105 716.562L509.897 714.229L511.147 713.52L517.063 713.166L519.73 713.52L522.605 713.333H527.272L529.23 713.687L532.813 713.52L534.793 714.583V716.916L534.251 719.249L533.897 720.145L532.459 722.104L532.105 723.187L531.022 725.333L530.313 726.416L530.126 727.666L529.043 729.812L528.334 730.708L527.626 732.854L526.188 734.833L525.834 736.083L525.105 737.145L524.751 738.229L523.147 741.624L522.063 742.708L521.001 745.208L519.563 747.354L519.376 748.437L518.668 749.52L518.313 750.583L516.522 753.624L515.626 755.958L515.084 757.208L514.73 758.291L513.48 760.437L513.105 761.333L512.209 762.416L512.043 763.479L510.251 765.812L509.543 766.874L508.813 768.145L507.751 770.458L506.668 772.249L505.23 775.479L503.793 777.624L502.73 779.958L501.647 781.02L501.126 781.916L500.584 782.999L499.334 785.145L498.605 787.291L497.897 788.187L497.543 789.624L497.001 790.52L496.105 791.416L495.751 793.208V794.458L495.022 796.791L494.48 798.749L494.126 800.541L493.772 802.708L493.418 803.77L493.584 804.854L493.063 807.187L492.522 809.687L491.813 812.374L491.084 814.874L490.918 816.124L490.376 817.916L490.022 819.166V820.249L489.647 822.749L489.126 825.437L488.751 826.687L488.043 829.374L487.501 831.895L486.959 835.104L486.063 838.874H479.626L478.188 838.687L477.126 838.874H475.501L472.813 838.687L471.751 838.874H467.98Z" fill="white"/>
<path d="M556.804 839.229L551.971 838.875H547.138L544.638 838.687L543.909 838.166L543.013 837.083V835.833L543.2 833.146L543.367 832.062L543.013 830.458L543.554 828.854L543.742 827.583L543.909 825.271L544.45 823.291L544.804 821.146L545.159 819.896L545.7 817.375L545.888 815.958V814.708L546.429 813.437L546.596 812.021L546.784 809.5L547.325 807L547.679 805.562L547.846 804.125L548.034 803.062L548.221 800.541L548.575 799.479L548.929 796.791L549.117 793.916L549.825 791.229V789.812L550.179 787.291L551.075 783.708V782.104L551.263 781.021L551.784 778.875L551.617 777.812L552.159 776.187L552.513 774.771L552.867 772.604L553.054 770.458V769.208L553.409 768.146L553.575 766.875L553.95 764.562L554.117 763.479L554.659 762.229L555.2 760.083L555.367 757.75L555.742 755.416L556.096 754.354L556.45 751.833L556.638 750.771L556.992 748.25L557.159 746.833L557.7 744.5L558.054 743.25L558.409 742.166V740.916L558.596 739.833L559.679 734.479V733.396L559.846 731.062L560.2 728.916L560.742 726.958L560.929 725.687L561.471 723.375L561.284 721.937L561.638 720.687L561.825 718.708L562.534 717.104V715.854L563.617 713.687L565.409 713.521H567.909L571.304 713.333L574.367 713.521H577.409L580.617 713.333L584.2 713.521H586.534L587.617 715.125L588.138 720.146L588.513 721.396L588.867 723.896L589.034 724.979L589.575 727.479L589.763 730.521L590.304 733.396L590.659 735.729L590.825 738.229L591.2 739.479V740.916L591.909 744.687L592.096 745.75L592.45 748.25V749.521L592.617 750.771L593.159 751.833L593.346 754.166V755.25L593.513 757.562L594.054 760.083V761.333L594.596 763.833L595.304 769.937L596.034 772.437V773.5L596.2 774.771V776.021L596.554 777.083L596.929 779.416L597.638 782.812H598.179L600.513 778.354L601.034 777.458L601.763 776.375L603.179 773.5L603.721 772.25L604.971 769.75L606.054 767.958L607.304 766.354V765.271L608.554 762.583L609.638 760.979L610.346 759.187L611.617 756.854L612.679 755.771L613.388 753.625L615.013 751.312L615.721 750.229L615.909 749.146L617.7 746.458L621.284 739.312L621.992 738.229L624.492 733.208L625.575 730.896L627.013 728.375L628.263 726.416L629.346 724.271L630.054 723.187L630.596 722.291L630.95 721.583L631.117 720.5L631.846 719.416L632.742 717.271L633.992 715.479L634.888 713.687L639.179 713.333L643.492 713.521L646.346 713.333L652.429 713.687L656.013 713.521L657.638 714.583L657.992 715.854L657.45 718.166L657.096 719.25L656.909 721.75L656.742 722.479L656.554 723.729L656.388 724.791L656.2 726.062L656.013 726.583V729.104L655.659 730.166L655.492 731.416L654.596 733.75V735.187L654.054 737.687L653.7 738.771L653.513 740.916L653.7 742L652.971 743.25V746.291L652.429 747.354L651.534 749.687L651.367 750.771L651.013 753.271L650.825 756.146L650.117 757.562L649.929 759.187V760.25L649.742 761.521L649.388 762.583L648.846 764.916L648.492 767.416L647.95 769.562L647.784 770.646L647.596 771.896L647.075 774.041L646.888 776.021L646.7 778.708L645.992 779.958V781.208L646.179 782.458L645.992 783.541L645.804 784.791L645.638 785.875L645.096 788.187L644.2 789.458L644.742 790.875L644.388 793.562L643.846 796.083V797.146L643.492 799.479L642.596 802.166L642.409 803.416L641.867 806.104L641.7 807.354L641.513 808.791L641.159 811.291L640.804 812.375L640.429 814.875L640.263 816.312L639.721 818.646L639.534 819.896L639.179 820.958L639.013 823.291L638.825 824.541V825.791L638.284 828.125L638.117 829.562L637.575 832.062L637.034 834.396L636.679 836.729L636.138 838.333L633.638 839.062H631.659L626.284 838.875H618.409L615.909 839.062L615.013 838.875H613.763L612.492 837.979L612.138 836L611.971 834.75L612.138 833.687L612.679 831.166L612.867 829.916L613.221 827.229L613.575 825.791L613.929 823.291L614.284 820.604L614.825 818.104L615.554 815.771L615.721 813.437L616.45 811.291L616.971 808.958V806.458L617.346 804.125L617.867 802.875L618.054 800.729L618.242 799.646L618.409 798.396L618.95 796.437L619.138 795.187V794.104L619.492 792.854L620.929 785.875L621.45 782.646L621.992 780.146L622.179 779.062L622.534 777.812L623.242 773.5H622.7L617.346 784.083L613.221 793.208L610.888 798.583L606.95 805.916L602.117 816.5L600.867 818.646L599.971 820.437L597.992 820.791H596.929L595.304 820.437L591.367 820.791L587.971 820.25L586.346 820.062L584.2 819L584.034 817.75L583.138 814.708L582.95 813.271L582.596 812.021L582.409 810.583L582.242 809.333L581.888 808.062L581.513 805.021L581.159 801.271L580.804 800.187L580.263 797.687L579.909 795.354L578.825 787.833L578.471 784.083L578.117 781.396L577.929 780.146L577.763 779.062L577.034 770.833H576.325L575.429 778.166V780.312L574.721 783.187L573.992 789.812L573.825 791.062L573.471 792.125V795.541L573.284 796.791L572.929 799.125L572.742 800.187L572.388 801.437L572.034 803.958L571.679 806.104V807.354L571.492 809.854L571.138 812.375V813.437L570.409 815.604L570.242 817.021L570.054 818.646L569.7 821.5L569.346 824.021L569.159 825.083L568.617 827.229V829.562L568.45 831.896L567.909 833.146L567.721 834.229L567.554 836L566.471 837.979L564.325 838.875H558.95L558.054 839.062L556.804 839.229Z" fill="white"/>
<path d="M683.232 841.75L678.586 841.208L676.253 841.375L675.003 841.208L673.378 841.021L669.274 839.771L667.836 839.583L665.149 838.875L663.899 838.167L661.399 836.542L658.17 833.854L655.649 831L655.128 830.104L654.232 829.208L653.69 828.125L652.795 826.875L651.357 824.542V823.479L650.815 822.229L650.649 821.146L650.295 820.25L649.92 819.167L649.753 817.917L649.399 816.854L649.211 814.333L649.024 813.271L648.503 809.688L648.857 808.438V805.021L649.399 803.229L649.211 801.813V800.542L649.565 796.604L650.295 794.104V792.667L650.649 790.167V788.917L651.357 786.396L651.003 785.5L651.357 783.188L651.711 781.917L652.253 778.708L652.795 776.563V774.229L653.336 772.083V770.833L653.857 769.75L654.232 768.5V767.417L654.586 766.167L654.399 765.083L655.482 763.292L655.836 762.042V759.542L656.19 757.396L656.732 756.146L656.92 755.063L657.274 752.563L657.982 748.083L658.878 746.833L659.232 744.5L660.315 742.167L660.857 740.917L661.565 738.771L662.461 736.25L663.545 734.104L664.253 732.854L665.857 730.521L666.045 729.271L666.753 728.208L668.19 725.875L669.628 723.729L670.878 722.833L671.774 721.75L674.274 719.063L676.607 717.458L678.045 716.917L679.295 716.021L681.44 714.771L683.586 713.688L686.274 712.979L687.357 712.792L690.045 712.083L691.836 711.896L695.065 711.375L697.565 711.188L699.711 711L702.94 711.188L704.003 711.375L705.982 711.542L708.836 711.896L710.274 712.438L711.711 712.625L712.795 712.979L715.482 714.229L718.69 716.375L720.128 717.271L721.024 718.354L723.003 719.958L724.961 721.75L725.857 722.833L726.399 724.083L727.461 726.417L728.003 727.479L728.357 728.563L728.732 729.813L729.253 732.5L729.628 735.896L729.795 737.333V738.583L729.628 740.917L729.44 742L729.628 744.313V745.563L729.44 747.896L729.086 749.146L728.899 750.229L729.086 751.479V753.271L728.899 754.354L728.545 756.854L728.357 759.542L728.19 762.417L727.836 763.667L727.461 766.521L727.649 768.313L726.753 770.292L726.94 772.438L726.211 774.771L725.857 777.083L725.315 779.417L725.149 781.563L724.607 783.896L724.065 784.979L723.524 788.188V789.813L723.17 791.063L722.815 793.563L722.274 794.646L720.482 800.917L720.67 801.979L719.774 804.125L719.232 805.208L719.045 807.188L718.149 809.146L717.628 811.292V812.542L717.086 814.521L716.19 815.771L716.003 817.563L714.753 820.063L713.315 823.292L712.42 824.542L710.815 826.875L710.107 827.958L709.211 829.021L708.836 830.104L706.69 832.25L705.628 833.146L704.732 834.229L702.586 835.833L700.42 837.271L699.711 837.792L695.586 839.417L694.336 839.583L692.899 839.958L690.399 840.479L689.149 840.667L687.17 841.208L683.232 841.75ZM681.795 817.375H684.128L686.649 816.667L688.253 815.958L690.753 814.167L692.003 811.646L693.086 809.146L693.44 807.896V806.458L693.982 803.771L694.336 802.521L694.69 800.021L695.232 798.583L695.42 796.083L695.961 794.813L696.482 792.5L696.67 791.063L697.211 789.979V788.563L697.024 788.021L697.565 786.396L698.107 783.708L698.461 779.604L699.003 777.979L699.524 776.563L699.899 773.146L700.42 772.083L700.253 769.042L700.961 766.354L701.315 764.188L701.69 762.771L702.045 761.521L701.857 760.25L702.045 757.938L702.399 756.5L702.94 753.979L703.295 752.375V750.042L703.649 746.833L703.836 744.5L704.19 742L703.482 738.417L702.753 737.333L701.503 735.729L698.628 734.479L695.232 734.646L693.795 735L690.94 736.083L689.149 737.688L687.899 739.667L687.17 741.813L686.461 743.063L685.378 745.396L685.024 746.646L684.67 748.083L683.586 751.833V752.208L683.42 753.625L682.878 756.146L682.69 757.208L681.982 759.729L681.44 762.229L680.899 765.083L680.732 766.354L680.378 767.604L680.024 770.292L679.482 771.729L678.753 774.583L678.399 775.833L678.045 778.354V779.604L677.857 780.854L678.045 782.292L677.503 783.542L676.607 786.042L676.795 787.479L676.44 788.729L676.607 789.458L676.253 791.063V792.5L675.899 793.75V795.188L675.357 797.875V799.125L674.815 800.375L675.357 801.625L675.17 803.771L674.461 805.563L675.003 806.813V811.833L675.545 813.083L675.899 813.813L676.961 815.417L677.857 816.313L679.295 816.854L680.732 817.208L681.795 817.375Z" fill="white"/>
<path d="M752.89 839.229L748.786 839.062L746.453 838.875L744.119 839.062L741.432 838.687L739.286 838.875L737.849 838.687H736.244L733.744 838.333L732.661 838.166H731.224L729.974 838.333H724.599L722.099 837.979L720.661 837.625V833.5L720.849 831.896L721.744 829.75L722.099 827.229L722.265 826.166L722.807 823.646L723.161 821.854L723.536 820.437V819L723.89 816.5L724.057 815.062L724.432 813.083L725.14 811.646L725.494 809.854V808.437L726.036 805.916L726.39 804.5L726.578 802.166L726.744 801.083L727.474 799.833V795.896L728.015 793.396L728.182 791.958L728.724 789.458L728.89 788.187L729.265 785.875L729.619 784.604L730.161 782.458L730.328 781.396L731.057 779.25V775.666L731.411 774.396L731.765 773.333L732.307 770.833L732.661 769.75L733.557 764.729L734.099 763.479L734.453 762.229L734.64 760.979V759.896L734.807 758.646L735.161 756.5L735.349 755.25L735.89 753.104V752.021L736.244 749.875L736.953 747.729V745.208L737.14 743.791L737.494 740.021L737.849 737.875L738.744 734.646L739.099 733.396V732.312L739.286 731.062L739.828 728.729L740.182 726.229L740.536 724.083L741.078 723L741.265 721.75L741.432 719.604L741.786 718.354L742.328 716.562L742.682 716.021L743.224 714.062L745.015 713.521H746.265L748.411 713.687L749.682 713.875L752.536 713.521H753.974L757.911 713.687L761.494 713.521H765.974L767.932 713.687L769.015 713.521H771.89L773.307 713.687L774.932 713.875L777.619 714.229H778.869L780.307 714.771L782.807 715.479H783.161L784.244 715.854L787.286 716.75L788.182 717.271L788.89 717.646L790.682 718.708L791.932 719.604L793.015 720.5L795.703 724.083L797.14 726.229L797.849 727.125L798.744 728.729L799.453 731.25L800.536 733.937L801.244 735.187L801.786 738.229V739.479L802.682 742L802.494 743.25L802.869 746.833L803.036 749.146L802.494 750.229L803.036 752.729L803.224 753.812L803.036 755.062L803.39 756.312L803.224 757.562V758.646L802.682 761.521V762.771L802.328 765.812L802.14 767.062V772.083L801.244 774.937V776.187L800.536 779.604L800.182 782.291L799.828 786.396L799.453 787.833L798.932 789.271L798.744 791.062L797.661 794.812L797.494 797.146L797.14 799.291L796.599 800.541L795.349 802.875L794.974 803.958L794.807 805.916L793.724 808.25L793.557 809.333L792.828 811.833L791.578 814.333L790.328 817.916L789.432 819.708L787.994 821.146L787.828 822.229L786.932 823.479L786.036 824.541L784.765 826.687L782.265 829.75L779.765 831.708L778.14 833.146L777.078 833.854L774.744 834.937L772.786 835.479L770.994 836.729L768.474 837.437L766.682 837.791L763.828 838.166L761.849 838.875H756.307L755.057 839.062H754.161L752.89 839.229ZM752.182 814.875H757.557L759.349 814.333L760.786 813.625L762.744 812.541L763.64 811.833L765.078 810.396L766.328 808.958L766.869 807.896L767.578 806.646L768.307 804.854L769.203 803.062L770.099 800.729L771.161 797.333L771.703 795.354L772.244 792.854L772.953 790.521L773.14 789.458L773.494 788.562L773.849 787.479L774.39 785.333L774.557 784.083L774.932 781.75L775.286 779.25L775.64 776.562L775.828 775.291L776.182 773.875L777.078 771.354V768.854L777.619 765.083L777.786 764.021L778.14 760.25L777.974 756.5L778.14 751.312L777.786 746.458L777.619 745.041L776.536 742L775.286 739.666L774.203 738.771L773.307 738.041L770.265 737.146L767.411 736.791L765.078 736.625L763.474 736.791L762.932 738.229L762.39 739.479V740.562L762.036 741.812L761.494 744.5L760.786 747L760.411 749.333L760.057 751.833L759.703 755.771L759.515 756.854L759.161 758.104V759.354L758.994 760.791L758.453 761.875V762.937L757.911 765.458L757.557 768.312V769.562L757.015 772.083L756.661 773.146L756.119 775.666V776.729L755.578 779.25L755.224 780.5L755.411 781.562L755.057 782.812L754.328 787.479V789.812L754.161 790.875L753.265 793.396V794.458L752.724 797.146L751.994 800.375L751.828 801.625L751.099 804.125L750.744 806.812L750.578 809.5L750.036 812.541L749.682 814.166L752.182 814.875Z" fill="white"/>
<path d="M825.604 841.208L821.312 840.854L820.062 840.666H818.27L816.291 840.312L814.499 839.958L813.249 839.583L810.374 838.333L808.416 837.624L806.624 836.374L804.479 834.937L802.687 832.604L800.895 830.458L799.27 827.958L798.02 824.916L797.666 823.479L796.416 820.249L796.229 819.166L795.687 816.666L795.52 815.604L795.166 812.729V807.354L795.333 804.312L795.166 803.062L795.52 800.374L795.687 798.937L796.062 797.687L796.583 794.812L799.104 793.562L803.395 793.208L805.541 793.395H815.583L817.895 793.562L819.333 796.083V802.708L819.166 803.958V807.708L819.52 811.645L820.062 813.437L821.312 816.124L823.104 817.916L825.416 818.458H827.041L828.479 818.104L830.437 817.562L831.333 816.666L832.229 815.062L832.937 813.812L833.666 811.645L834.02 809.499L834.208 807.708V806.458L834.02 803.958V801.083L833.312 797.874V796.791L832.77 794.104L831.333 791.604L829.895 789.458L828.645 786.937L827.937 785.874L827.583 784.979L827.041 784.083L825.791 782.812L824.895 781.395L822.916 779.062L822.02 778.166L821.312 777.083L819.333 774.77L817.187 772.437L815.583 770.104L813.791 768.145L811.999 766.708L811.104 765.458L810.02 763.666L808.958 760.979L808.229 759.354L807.333 758.104L806.791 756.854L806.437 755.416L805.729 753.104L805.541 750.77L805.374 749.333L805.541 748.083V742.895L805.895 739.312L806.437 738.041L806.624 735.541L807.333 734.291L807.874 732.499L808.062 730.708L809.124 728.374L809.854 726.958L810.374 725.687L810.916 724.791L812.354 723.187L812.895 722.479L813.958 720.687L815.041 719.604L817.187 717.812L820.416 715.479L823.27 714.416L825.249 713.333L828.645 712.624L831.687 711.729H837.249L841.729 711.895H842.979L844.583 712.27L847.27 712.437L850.312 713.333L851.562 713.52L852.291 714.062L854.437 715.124L855.687 716.208L857.124 716.749L859.083 718.52L859.624 719.249L861.416 721.208L861.958 722.104L863.208 724.083L863.937 725.166L864.291 727.124L864.833 728.374L865.895 732.687V736.624L866.083 740.208L865.895 743.249L865.187 748.249L864.458 752.208L862.312 753.27L859.083 753.458H849.062L846.562 753.27H844.041L842.624 752.02L842.437 749.687L842.791 748.249L843.333 742.708V738.583L842.979 736.437L842.437 735.374L840.833 733.749L839.041 732.312L836.708 731.958L834.562 732.687L832.583 733.583L831.687 734.833L831.145 736.083L830.437 737.874L830.27 739.124L829.729 740.916L829.541 743.416V745.749L829.729 746.999L830.979 750.416L832.416 752.916L833.124 754.354L834.374 756.666L836.354 759.187L838.687 762.041L839.395 763.124L840.291 764.02L840.999 765.458L841.729 766.354L842.791 767.062L844.583 768.499L845.124 769.562L846.02 770.104L846.562 770.999L848.166 772.791L849.062 774.395L851.208 776.562L852.458 779.604L854.083 781.562L854.249 782.458L855.687 786.041L856.77 788.374L857.833 792.124L858.02 793.395L858.187 794.812L858.374 796.083L859.27 799.124L859.624 800.187L859.458 802.708L859.27 803.77L859.458 805.02L859.27 806.291V811.291L858.729 813.812L858.562 814.874V817.562L857.833 819.895L857.479 821.333L857.124 822.937L856.229 825.437L854.624 828.479L853.541 829.208L852.645 830.999L851.749 831.708L850.312 833.333L849.416 834.041L847.999 835.291L846.208 836.374L844.583 837.624L842.437 838.166L841.354 838.874L838.687 839.77L837.249 839.958L834.916 840.666L833.666 840.854L832.041 840.666L830.791 840.854H828.833L827.583 841.02L825.604 841.208Z" fill="white"/>
<mask id="mask0_842_55" style="mask-type:luminance" maskUnits="userSpaceOnUse" x="347" y="172" width="331" height="432">
<path d="M347 172H678V604H347V172Z" fill="white"/>
</mask>
<g mask="url(#mask0_842_55)">
<path d="M507.469 603.88C533.532 560.057 548.401 509.635 550.302 458.688C562.766 487.479 562.771 519.547 551.974 547.615C587.157 521.068 615.282 484.958 631.125 444.188C634.172 456.391 634.974 469.146 633.49 481.63C659.266 433.661 652.828 370.307 618.776 328.026C634.193 333.391 647.964 343.354 657.875 356.318C645.745 330.359 626.547 307.75 602.901 291.563C641.73 308.255 671.078 345.359 677.985 387.099C670.912 379.401 662.99 372.484 653.334 365.656C671.323 415.724 660.448 475.073 624.115 515.865C624.115 510.672 624.641 502.557 624.641 491.797C599.417 540.823 558.167 575.974 507.469 603.88ZM505.235 433.708C471.839 447.156 439.667 463.651 409.261 482.932L367.745 461.906L346.979 432.693L399.459 370.63L391.146 331.76L435.636 281.552L447.933 172.172L510.927 254.667L498.323 268.24L459.625 217.24L452.464 288.609L409.198 334.901L418.521 373.578L371.693 428.573L392.115 427.719L378.433 445.245C378.433 445.245 409.631 462.729 410.86 462.714C437.365 445.245 468.459 434.802 505.235 433.708ZM450.875 347.62L445.698 364.344L471.302 351.984L489.391 330.068L450.875 347.62ZM563.636 232.911C563.907 233.146 572.854 283.99 572.854 283.99L568.797 314.844L553.172 319.479C583.339 330.313 609.516 351.891 625.907 379.432C621.099 354.917 605.912 332.609 584.865 319.141C584.36 318.422 589.433 281.557 589.433 281.557L574.302 193.583L495.162 285.984C521.719 277.172 545.901 257.396 563.636 232.911ZM474.037 586.063C495.589 552.896 501.724 512.167 491.922 475.406C491.86 488.63 487.839 501.807 480.511 512.813C476.568 494.26 473.125 475.688 469.693 457.109C468.594 457.714 454.219 465.703 454.219 465.703C463.688 505.156 470.542 545.469 474.037 586.063ZM580.959 382.703C559.141 362.068 527.433 352.224 497.563 356.734C519.37 358.406 541.11 368.271 556.542 384.365C571.964 400.458 580.907 422.599 580.979 444.891C570.417 425.87 552.323 410.646 531.36 403.49C560.787 430.042 578.36 467.938 578.261 504.604C597.188 476.396 603.125 439.849 593.276 407.411C599.745 412.464 605.042 419.005 608.631 426.385C608.651 393.13 590.573 360.422 562.417 342.745C571.813 353.776 578.266 367.891 580.959 382.703Z" fill="white"/>
</g>
</svg>
